<?xml version="1.0" encoding="UTF-8" standalone="no"?>
<!-- Created with Inkscape (http://www.inkscape.org/) -->

<svg
   xmlns:dc="http://purl.org/dc/elements/1.1/"
   xmlns:cc="http://creativecommons.org/ns#"
   xmlns:rdf="http://www.w3.org/1999/02/22-rdf-syntax-ns#"
   xmlns:svg="http://www.w3.org/2000/svg"
   xmlns="http://www.w3.org/2000/svg"
   xmlns:sodipodi="http://sodipodi.sourceforge.net/DTD/sodipodi-0.dtd"
   xmlns:inkscape="http://www.inkscape.org/namespaces/inkscape"
   width="13.694321mm"
   height="16.713116mm"
   viewBox="0 0 13.694321 16.713116"
   version="1.1"
   id="svg38"
   inkscape:version="0.92.1 r15371"
   sodipodi:docname="MUTTS White.svg">
  <defs
     id="defs32" />
  <sodipodi:namedview
     id="base"
     pagecolor="#ffffff"
     bordercolor="#666666"
     borderopacity="1.0"
     inkscape:pageopacity="0.0"
     inkscape:pageshadow="2"
     inkscape:zoom="11.2"
     inkscape:cx="10.5115"
     inkscape:cy="27.369828"
     inkscape:document-units="mm"
     inkscape:current-layer="layer1"
     showgrid="false"
     inkscape:window-width="1920"
     inkscape:window-height="1017"
     inkscape:window-x="1912"
     inkscape:window-y="-8"
     inkscape:window-maximized="1" />
  <metadata
     id="metadata35">
    <rdf:RDF>
      <cc:Work
         rdf:about="">
        <dc:format>image/svg+xml</dc:format>
        <dc:type
           rdf:resource="http://purl.org/dc/dcmitype/StillImage" />
        <dc:title></dc:title>
      </cc:Work>
    </rdf:RDF>
  </metadata>
  <g
     inkscape:label="Layer 1"
     inkscape:groupmode="layer"
     id="layer1"
     transform="translate(-0.71236052,-0.62558509)">
    <path
       style="fill:#ffffff;fill-opacity:1;stroke-width:0.01087363"
       d="m 5.7710325,17.31699 c -0.09996,-0.061 -0.183321,-0.18825 -0.234928,-0.35877 -0.05396,-0.17826 -0.0655,-0.26293 -0.06602,-0.48386 -4.5e-4,-0.23329 0.0069,-0.27102 0.08261,-0.42168 0.05489,-0.10917 0.06369,-0.18143 0.05582,-0.4582 -0.0079,-0.27803 -0.0021,-0.30231 0.09909,-0.43877 0.154305,-0.20742 0.20038,-0.27162 0.347945,-0.48478 0.2055,-0.29685 0.347348,-0.51785 0.399707,-0.62273 0.04261,-0.0853 0.04459,-0.0942 0.0588,-0.26097 0.0081,-0.0949 0.02253,-0.21668 0.03208,-0.27051 0.03236,-0.18206 0.03584,-0.176 -0.418885,-0.7231 -0.812836,-0.97791 -1.092278,-1.35156 -1.768644,-2.365 -0.306294,-0.4589405 -0.895021,-1.4413605 -1.009967,-1.6853505 -0.09462,-0.20085 -0.115654,-0.26871 -0.121359,-0.39151 -0.0072,-0.15428 -0.01181,-0.15036 0.179339,-0.1514 0.08405,-4.5e-4 0.156113,-0.004 0.160158,-0.008 0.004,-0.004 -0.02682,-0.0824 -0.06853,-0.17398 -0.04173,-0.0916 -0.115929,-0.262049 -0.164862,-0.378659 -0.04894,-0.11663 -0.132152,-0.30257 -0.184914,-0.41321 -0.106508,-0.22331 -0.131939,-0.30568 -0.163212,-0.52859 -0.05382,-0.38366 -0.0312,-0.88731 0.055,-1.22557 0.06825,-0.26777 0.407592,-1.07695 0.586252,-1.39798 0.05441,-0.0977 0.04102,-0.15465 -0.06726,-0.28587 -0.0312,-0.0378 -0.419306,-0.43572 -0.862474,-0.88426 -1.394545,-1.41144 -1.98441798,-2.04044998 -1.98441798,-2.11604998 0,-0.0303 0.04385,-0.0708 0.09376,-0.0866 0.02965,-0.009 0.21960698,-0.0158 0.64021598,-0.0215 0.561644,-0.008 1.583108,-0.0353 1.788711,-0.0484 0.160061,-0.0102 0.751895,-0.007 0.841931,0.005 0.230967,0.0298 0.374315,0.0941 0.550931,0.24671 0.03345,0.029 0.180503,0.16513998 0.326753,0.30270998 0.462837,0.43531 0.568047,0.52628 0.650835,0.5628 0.102475,0.0451 0.291841,0.0392 1.304836,-0.0414 0.51345,-0.0409 0.617602,-0.0424 0.712223,-0.0102 0.02991,0.0102 0.138666,0.0645 0.241699,0.12086 0.246491,0.13472 0.355972,0.18887 0.381807,0.18887 0.04412,0 0.04467,-0.0506 0.0026,-0.23754 -0.05804,-0.25748 -0.101984,-0.40192 -0.238615,-0.78455998 -0.08418,-0.23578 -0.04857,-0.34156 0.115206,-0.34224 0.06333,-2.8e-4 0.07724,0.005 0.217477,0.0791 0.260541,0.13799 0.899424,0.45176998 1.217817,0.59811998 0.4898235,0.22517 0.4684365,0.20809 1.4274905,1.13947 0.266129,0.25844 0.587328,0.57434 0.713777,0.70199 0.209999,0.212 0.231373,0.23707 0.246892,0.28954 0.02159,0.073 0.04429,0.24704 0.0726,0.55693 0.02327,0.2547 0.04716,0.43951 0.06721,0.52028 0.01579,0.0636 0.0405,0.0801 0.364735,0.24406 0.341863,0.1728 0.562081,0.27475 0.720378,0.3335 0.06877,0.0256 0.276733,0.1125 0.462129,0.19327 0.414055,0.1804 0.607349,0.25898 0.660102,0.26833 0.08982,0.0159 0.108916,0.0903 0.110663,0.43044 0.0012,0.28176 -0.0026,0.30227 -0.07912,0.38419 -0.06208,0.0666 -0.344966,0.30283 -0.684604,0.57162 -0.316844,0.25074 -0.356092,0.27794 -0.424961,0.29447 -0.115743,0.0278 -0.177794,0.0117 -1.245751,-0.32266 -0.334908,-0.10485 -0.745929,-0.23203 -0.913385,-0.28262 -0.286098,-0.0865 -0.308671,-0.0916 -0.374297,-0.0853 -0.139675,0.0134 -0.31741,0.0919 -0.324925,0.14355 -0.0054,0.0362 0.04434,0.0657 0.181653,0.1075 0.619437,0.18896 2.08725,0.66294 2.104482,0.6796 0.04514,0.0435 0.01176,0.18992 -0.06364,0.27908 -0.04694,0.0555 -0.18567,0.154879 -0.372415,0.266809 -0.242665,0.14545 -0.251395,0.14933 -0.33498,0.14933 -0.03917,0 -0.24364,-0.0298 -0.454407,-0.066 -0.367884,-0.0634 -0.531181,-0.0949 -1.117182,-0.21644 -0.146524,-0.0303 -0.3116655,-0.0582 -0.3669855,-0.062 l -0.100579,-0.007 v 0.0336 c 0,0.0623 0.03279,0.19082 0.157207,0.61672 0.2215375,0.75834 0.2222975,0.76271 0.1609435,0.92453 -0.07657,0.20193 -0.4056245,0.8912505 -0.5838165,1.2230105 -0.08016,0.14921 -1.003251,2.09584 -1.136973,2.39763 -0.118222,0.2668 -0.132744,0.32674 -0.15731,0.64922 -0.04204,0.552 -0.07396,0.85375 -0.158463,1.49832 -0.116735,0.89048 -0.132976,0.97641 -0.189387,1.00212 -0.06287,0.0287 -0.365797,-0.0505 -0.566375,-0.14797 -0.05407,-0.0262 -0.145292,-0.0825 -0.202732,-0.12474 -0.05743,-0.0424 -0.109519,-0.077 -0.115733,-0.077 -0.01628,0 -0.06383,0.0615 -0.260368,0.33708 -0.09598,0.13456 -0.23865,0.32539 -0.317018,0.42406 -0.07837,0.0987 -0.221449,0.28158 -0.317954,0.40644 -0.189936,0.24577 -0.280527,0.34387 -0.317428,0.34382 -0.01279,0 -0.03934,-0.0102 -0.05894,-0.0219 z m 0.135563,-0.46696 c 0.01908,-0.0115 0.08321,-0.0863 0.142543,-0.16579 0.05933,-0.0795 0.153176,-0.19847 0.208536,-0.26425 0.155667,-0.18499 0.423461,-0.56665 0.514997,-0.73397 0.05149,-0.0941 0.06378,-0.15282 0.04994,-0.23867 -0.0147,-0.0913 -0.05867,-0.17409 -0.144576,-0.27239 -0.09736,-0.11142 -0.122349,-0.16093 -0.135081,-0.2676 -0.01137,-0.0952 -0.02894,-0.14219 -0.06019,-0.16091 -0.01682,-0.0102 -0.02819,-0.003 -0.07522,0.0479 -0.05622,0.0607 -0.253337,0.30376 -0.374803,0.46213 -0.03668,0.0479 -0.08055,0.11391 -0.09746,0.14681 l -0.03076,0.0598 v 0.31019 0.3102 l -0.03195,0.0595 c -0.07764,0.14457 -0.09432,0.18392 -0.110533,0.26067 -0.03345,0.15834 -0.0035,0.37213 0.06105,0.43674 0.0366,0.0366 0.03886,0.0367 0.08347,0.0102 z m 1.795796,-1.00906 c 0.02726,-0.0232 0.04252,-0.0947 0.09388,-0.44035 0.08927,-0.60047 0.172009,-1.36494 0.173315,-1.60118 8.2e-4,-0.16219 -8.2e-4,-0.1795 -0.02806,-0.25553 -0.03854,-0.10834 -0.155981,-0.38941 -0.249894,-0.59804 -0.1525,-0.3388 -0.197216,-0.4512 -0.406659,-1.02213 -0.446902,-1.21825 -0.721985,-2.1041605 -0.913311,-2.9413205 -0.0487,-0.21311 -0.0681,-0.26009 -0.133355,-0.3232 -0.02805,-0.0271 -0.305494,-0.25151 -0.616478,-0.4986 -0.843269,-0.669989 -1.493396,-1.197819 -1.900702,-1.543169 l -0.09569,-0.0812 0.0074,-0.0438 c 0.01801,-0.10666 0.182038,-0.53997 0.316464,-0.83599 0.244244,-0.53783 0.33127,-0.75119 0.373053,-0.91457 0.02774,-0.10854 0.0277,-0.16228 -2.91e-4,-0.20757 -0.05387,-0.0871 -0.341082,-0.30926 -0.399928,-0.30926 -0.03872,0 -0.07273,0.0245 -0.10503,0.0757 -0.05579,0.0884 -0.34764,0.75468 -0.44523,1.01649 -0.06414,0.17207 -0.135297,0.46676 -0.149758,0.62023 -0.01527,0.16219 0.0031,0.61557 0.03005,0.74501 0.02403,0.11514 0.07302,0.25747 0.198278,0.57632 0.176736,0.44991 0.22644,0.553469 0.419403,0.873929 0.127377,0.21154 0.160416,0.29029 0.167254,0.39867 0.0048,0.0765 0.0031,0.0842 -0.02363,0.11615 -0.05297,0.0629 -0.121722,0.0692 -0.25482,0.0235 -0.03265,-0.0112 -0.07575,-0.0205 -0.09575,-0.0205 -0.03253,0 -0.03638,0.003 -0.03638,0.0303 0,0.0809 0.138838,0.31759 0.690402,1.17677 0.858155,1.3367605 1.017601,1.5572905 2.004761,2.7727705 0.182143,0.22427 0.346824,0.42734 0.365961,0.45126 0.126229,0.15781 0.13805,0.27309 0.103987,1.01461 -0.02535,0.55187 -0.02801,0.73666 -0.01116,0.78155 0.0064,0.0169 0.03518,0.0549 0.06413,0.0849 0.06496,0.0671 0.13778,0.17676 0.232659,0.35039 0.09068,0.16594 0.15703,0.26144 0.220425,0.31723 0.104132,0.0916 0.325585,0.22898 0.369895,0.22935 0.0068,1.4e-4 0.02248,-0.008 0.03479,-0.019 z m 0.388353,-2.82424 c 0.109113,-0.14305 0.461519,-0.83331 0.879985,-1.72366 0.147573,-0.31398 0.354077,-0.73697 0.458899,-0.93998 0.33369,-0.6463005 0.460173,-0.9464405 0.460076,-1.0918205 -8.4e-5,-0.0978 -0.118393,-0.57224 -0.261875,-1.04991 -0.09886,-0.32913 -0.139346,-0.438929 -0.171017,-0.463839 -0.05332,-0.042 -0.38736,-0.13085 -0.674289,-0.17945 -0.198956,-0.0336 -0.235765,-0.034 -0.25624,-0.002 -0.02319,0.0362 -0.06261,0.210979 -0.136835,0.606219 -0.03651,0.19435 -0.09572,0.49039 -0.131584,0.65784 -0.124487,0.58114 -0.446926,1.9472905 -0.499166,2.1149305 -0.06688,0.21458 -0.169283,0.59768 -0.191839,0.71766 -0.03173,0.16871 -0.0208,0.20935 0.210275,0.7829 0.156415,0.3882 0.255607,0.60892 0.273659,0.60892 0.0062,0 0.02408,-0.0171 0.03996,-0.0379 z M 11.836866,7.8940795 c 0.132461,-0.0388 0.35137,-0.176949 0.39033,-0.246369 0.01461,-0.0261 0.01465,-0.0312 2.91e-4,-0.0449 -0.02518,-0.0243 -1.923084,-0.64197 -2.190931,-0.71306 -0.1228955,-0.0327 -0.1323875,-0.0378 -0.1572255,-0.0866 -0.05751,-0.11271 -0.0098,-0.17248 0.2377075,-0.2986 0.138444,-0.0706 0.408805,-0.18729 0.473997,-0.20473 0.06436,-0.0172 0.156623,0.006 0.625306,0.16033 0.502232,0.16491 0.663511,0.21449 1.054742,0.32423 0.182406,0.0511 0.40994,0.11712 0.505626,0.14656 0.207979,0.064 0.247505,0.0714 0.308056,0.0578 0.071,-0.0159 0.144197,-0.0654 0.43667,-0.29521 0.148442,-0.11661 0.341706,-0.26517 0.429477,-0.33011 0.08777,-0.0649 0.169351,-0.13345 0.181298,-0.15222 0.01987,-0.0312 0.02124,-0.0472 0.01602,-0.18436 -0.007,-0.18363 -0.01912,-0.21502 -0.102188,-0.2645 -0.09143,-0.0544 -0.367386,-0.17777 -0.761839,-0.34043 -0.557413,-0.22986 -0.663099,-0.27694 -1.007656,-0.44881 -0.344152,-0.17168 -0.414214,-0.22835 -0.460945,-0.37273 -0.03837,-0.11861 -0.04817,-0.20229 -0.07184,-0.61437 -0.01818,-0.31675 -0.02155,-0.34947 -0.04403,-0.43039 -0.01469,-0.053 -0.03845,-0.0775 -0.56741,-0.58801 -1.090856,-1.05271 -1.2084655,-1.15403 -1.5143835,-1.3046 -0.581452,-0.28616 -1.13903,-0.54102 -1.231,-0.56265 -0.06728,-0.0159 -0.06033,0.0633 0.03332,0.37928 0.123779,0.41766 0.139365,0.48017 0.153299,0.61486 0.01607,0.1553 0.03403,0.17207 0.408284,0.38078 0.268565,0.14978 0.346816,0.19978 0.420843,0.26891 0.06785,0.0633 0.08299,0.1084 0.05478,0.16287 -0.04368,0.0843 -0.08443,0.0768 -0.373188,-0.0682 -0.371605,-0.18675 -0.704107,-0.37777 -1.054695,-0.60594 -0.246593,-0.16049 -0.446875,-0.2641 -0.533425,-0.27594 -0.02611,-0.004 -0.133128,8.2e-4 -0.237791,0.0106 -0.104657,0.009 -0.275914,0.0224 -0.380576,0.0288 -0.655809,0.0401 -0.956877,0.0676 -0.956877,0.0871 0,0.0321 0.195844,0.25035 0.62416,0.69557 0.647353,0.67288 0.943805,0.99671 1.030315,1.12543 0.04009,0.0597 0.04328,0.0695 0.03718,0.11557 -0.0095,0.0721 -0.04403,0.16715 -0.161283,0.4444 -0.05692,0.13457 -0.156071,0.37434 -0.220348,0.53282 -0.06427,0.15848 -0.138081,0.3338 -0.164008,0.38962 -0.06179,0.13299 -0.06642,0.16058 -0.03779,0.22531 0.03718,0.084 0.126354,0.1847 0.524389,0.59204 0.757979,0.77572 0.968449,0.97332 1.116748,1.04847 0.0688,0.0349 0.494165,0.13875 1.3391065,0.32708 0.331921,0.074 0.684224,0.154 0.782902,0.17784 0.09868,0.0239 0.233238,0.0489 0.299024,0.0559 0.06579,0.007 0.193007,0.0289 0.282717,0.0491 0.08971,0.0202 0.172889,0.0388 0.184852,0.0414 0.05507,0.0123 0.222683,0.006 0.27802,-0.0102 z"
       id="path4500"
       inkscape:connector-curvature="0" />
  </g>
</svg>
